<mxfile host="app.diagrams.net" modified="2024-05-20T19:31:43.532Z" agent="Mozilla/5.0 (Macintosh; Intel Mac OS X 10_15_7) AppleWebKit/537.36 (KHTML, like Gecko) Chrome/124.0.0.0 Safari/537.36" etag="BJgoh31Bp7WkQfDhUsnX" version="24.4.4" type="github" pages="2">
  <diagram name="Page-1" id="aaaa8250-4180-3840-79b5-4cada1eebb92">
    <mxGraphModel dx="1803" dy="1004" grid="1" gridSize="10" guides="1" tooltips="1" connect="1" arrows="1" fold="1" page="1" pageScale="1" pageWidth="850" pageHeight="1100" background="none" math="0" shadow="0">
      <root>
        <mxCell id="0" />
        <mxCell id="1" parent="0" />
        <mxCell id="h29dOdCf91kiFEEPr48u-304" value="VPC" style="points=[[0,0],[0.25,0],[0.5,0],[0.75,0],[1,0],[1,0.25],[1,0.5],[1,0.75],[1,1],[0.75,1],[0.5,1],[0.25,1],[0,1],[0,0.75],[0,0.5],[0,0.25]];outlineConnect=0;gradientColor=none;html=1;whiteSpace=wrap;fontSize=12;fontStyle=0;container=1;pointerEvents=0;collapsible=0;recursiveResize=0;shape=mxgraph.aws4.group;grIcon=mxgraph.aws4.group_vpc2;strokeColor=#8C4FFF;fillColor=none;verticalAlign=top;align=left;spacingLeft=30;fontColor=#AAB7B8;dashed=0;" vertex="1" parent="1">
          <mxGeometry x="6040" y="280" width="720" height="800" as="geometry" />
        </mxCell>
        <mxCell id="h29dOdCf91kiFEEPr48u-328" style="edgeStyle=orthogonalEdgeStyle;rounded=0;orthogonalLoop=1;jettySize=auto;html=1;entryX=0;entryY=0.5;entryDx=0;entryDy=0;entryPerimeter=0;" edge="1" parent="h29dOdCf91kiFEEPr48u-304" source="h29dOdCf91kiFEEPr48u-285" target="h29dOdCf91kiFEEPr48u-318">
          <mxGeometry relative="1" as="geometry" />
        </mxCell>
        <mxCell id="t5OwSdyjSk-G459lIH6P-4" value="" style="group" vertex="1" connectable="0" parent="h29dOdCf91kiFEEPr48u-304">
          <mxGeometry x="200" y="80" width="280" height="640" as="geometry" />
        </mxCell>
        <mxCell id="h29dOdCf91kiFEEPr48u-278" value="Subnet" style="sketch=0;outlineConnect=0;gradientColor=none;html=1;whiteSpace=wrap;fontSize=12;fontStyle=0;shape=mxgraph.aws4.group;grIcon=mxgraph.aws4.group_subnet;strokeColor=#FFB570;fillColor=none;verticalAlign=top;align=left;spacingLeft=30;fontColor=#879196;dashed=0;" vertex="1" parent="t5OwSdyjSk-G459lIH6P-4">
          <mxGeometry width="280" height="640" as="geometry" />
        </mxCell>
        <mxCell id="t5OwSdyjSk-G459lIH6P-1" value="" style="group" vertex="1" connectable="0" parent="t5OwSdyjSk-G459lIH6P-4">
          <mxGeometry x="40" y="40" width="192.5" height="160" as="geometry" />
        </mxCell>
        <mxCell id="h29dOdCf91kiFEEPr48u-308" value="Order" style="sketch=0;outlineConnect=0;fontColor=#232F3E;gradientColor=none;fillColor=#ED7100;strokeColor=none;dashed=0;verticalLabelPosition=bottom;verticalAlign=top;align=center;html=1;fontSize=12;fontStyle=0;aspect=fixed;pointerEvents=1;shape=mxgraph.aws4.ecs_service;" vertex="1" parent="t5OwSdyjSk-G459lIH6P-1">
          <mxGeometry x="80" y="40" width="32.5" height="40" as="geometry" />
        </mxCell>
        <mxCell id="h29dOdCf91kiFEEPr48u-309" value="Product" style="sketch=0;outlineConnect=0;fontColor=#232F3E;gradientColor=none;fillColor=#ED7100;strokeColor=none;dashed=0;verticalLabelPosition=bottom;verticalAlign=top;align=center;html=1;fontSize=12;fontStyle=0;aspect=fixed;pointerEvents=1;shape=mxgraph.aws4.ecs_service;" vertex="1" parent="t5OwSdyjSk-G459lIH6P-1">
          <mxGeometry x="160" y="40" width="32.5" height="40" as="geometry" />
        </mxCell>
        <mxCell id="h29dOdCf91kiFEEPr48u-310" value="Invoice" style="sketch=0;outlineConnect=0;fontColor=#232F3E;gradientColor=none;fillColor=#ED7100;strokeColor=none;dashed=0;verticalLabelPosition=bottom;verticalAlign=top;align=center;html=1;fontSize=12;fontStyle=0;aspect=fixed;pointerEvents=1;shape=mxgraph.aws4.ecs_service;" vertex="1" parent="t5OwSdyjSk-G459lIH6P-1">
          <mxGeometry x="80" y="120" width="32.5" height="40" as="geometry" />
        </mxCell>
        <mxCell id="h29dOdCf91kiFEEPr48u-318" value="" style="outlineConnect=0;dashed=0;verticalLabelPosition=bottom;verticalAlign=top;align=center;html=1;shape=mxgraph.aws3.elastic_load_balancing;fillColor=#F58536;gradientColor=none;" vertex="1" parent="t5OwSdyjSk-G459lIH6P-1">
          <mxGeometry width="40" height="40" as="geometry" />
        </mxCell>
        <mxCell id="h29dOdCf91kiFEEPr48u-319" style="edgeStyle=orthogonalEdgeStyle;rounded=0;orthogonalLoop=1;jettySize=auto;html=1;" edge="1" parent="t5OwSdyjSk-G459lIH6P-1" source="h29dOdCf91kiFEEPr48u-318" target="h29dOdCf91kiFEEPr48u-308">
          <mxGeometry relative="1" as="geometry" />
        </mxCell>
        <mxCell id="h29dOdCf91kiFEEPr48u-320" style="edgeStyle=orthogonalEdgeStyle;rounded=0;orthogonalLoop=1;jettySize=auto;html=1;" edge="1" parent="t5OwSdyjSk-G459lIH6P-1" source="h29dOdCf91kiFEEPr48u-318" target="h29dOdCf91kiFEEPr48u-309">
          <mxGeometry relative="1" as="geometry">
            <Array as="points">
              <mxPoint x="130" y="20" />
              <mxPoint x="130" y="60" />
            </Array>
          </mxGeometry>
        </mxCell>
        <mxCell id="h29dOdCf91kiFEEPr48u-321" style="edgeStyle=orthogonalEdgeStyle;rounded=0;orthogonalLoop=1;jettySize=auto;html=1;" edge="1" parent="t5OwSdyjSk-G459lIH6P-1" source="h29dOdCf91kiFEEPr48u-318" target="h29dOdCf91kiFEEPr48u-310">
          <mxGeometry relative="1" as="geometry">
            <Array as="points">
              <mxPoint x="60" y="20" />
              <mxPoint x="60" y="140" />
            </Array>
          </mxGeometry>
        </mxCell>
        <mxCell id="t5OwSdyjSk-G459lIH6P-2" value="" style="group" vertex="1" connectable="0" parent="t5OwSdyjSk-G459lIH6P-4">
          <mxGeometry x="40" y="280" width="192.5" height="80" as="geometry" />
        </mxCell>
        <mxCell id="h29dOdCf91kiFEEPr48u-311" value="Warehouse&lt;div&gt;Interface&lt;/div&gt;" style="sketch=0;outlineConnect=0;fontColor=#232F3E;gradientColor=none;fillColor=#ED7100;strokeColor=none;dashed=0;verticalLabelPosition=bottom;verticalAlign=top;align=center;html=1;fontSize=12;fontStyle=0;aspect=fixed;pointerEvents=1;shape=mxgraph.aws4.ecs_service;" vertex="1" parent="t5OwSdyjSk-G459lIH6P-2">
          <mxGeometry x="80" y="40" width="32.5" height="40" as="geometry" />
        </mxCell>
        <mxCell id="h29dOdCf91kiFEEPr48u-312" value="Routing&lt;div&gt;Interface&lt;/div&gt;" style="sketch=0;outlineConnect=0;fontColor=#232F3E;gradientColor=none;fillColor=#ED7100;strokeColor=none;dashed=0;verticalLabelPosition=bottom;verticalAlign=top;align=center;html=1;fontSize=12;fontStyle=0;aspect=fixed;pointerEvents=1;shape=mxgraph.aws4.ecs_service;" vertex="1" parent="t5OwSdyjSk-G459lIH6P-2">
          <mxGeometry x="160" y="40" width="32.5" height="40" as="geometry" />
        </mxCell>
        <mxCell id="h29dOdCf91kiFEEPr48u-322" value="" style="outlineConnect=0;dashed=0;verticalLabelPosition=bottom;verticalAlign=top;align=center;html=1;shape=mxgraph.aws3.elastic_load_balancing;fillColor=#F58536;gradientColor=none;" vertex="1" parent="t5OwSdyjSk-G459lIH6P-2">
          <mxGeometry width="40" height="40" as="geometry" />
        </mxCell>
        <mxCell id="h29dOdCf91kiFEEPr48u-323" style="edgeStyle=orthogonalEdgeStyle;rounded=0;orthogonalLoop=1;jettySize=auto;html=1;" edge="1" parent="t5OwSdyjSk-G459lIH6P-2" source="h29dOdCf91kiFEEPr48u-322" target="h29dOdCf91kiFEEPr48u-311">
          <mxGeometry relative="1" as="geometry" />
        </mxCell>
        <mxCell id="h29dOdCf91kiFEEPr48u-324" style="edgeStyle=orthogonalEdgeStyle;rounded=0;orthogonalLoop=1;jettySize=auto;html=1;" edge="1" parent="t5OwSdyjSk-G459lIH6P-2" source="h29dOdCf91kiFEEPr48u-322" target="h29dOdCf91kiFEEPr48u-312">
          <mxGeometry relative="1" as="geometry">
            <Array as="points">
              <mxPoint x="130" y="20" />
              <mxPoint x="130" y="60" />
            </Array>
          </mxGeometry>
        </mxCell>
        <mxCell id="t5OwSdyjSk-G459lIH6P-3" value="" style="group" vertex="1" connectable="0" parent="t5OwSdyjSk-G459lIH6P-4">
          <mxGeometry x="40" y="480" width="192.5" height="80" as="geometry" />
        </mxCell>
        <mxCell id="h29dOdCf91kiFEEPr48u-313" value="Delivery Note" style="sketch=0;outlineConnect=0;fontColor=#232F3E;gradientColor=none;fillColor=#ED7100;strokeColor=none;dashed=0;verticalLabelPosition=bottom;verticalAlign=top;align=center;html=1;fontSize=12;fontStyle=0;aspect=fixed;pointerEvents=1;shape=mxgraph.aws4.ecs_service;" vertex="1" parent="t5OwSdyjSk-G459lIH6P-3">
          <mxGeometry x="80" y="40" width="32.5" height="40" as="geometry" />
        </mxCell>
        <mxCell id="h29dOdCf91kiFEEPr48u-315" value="Notification" style="sketch=0;outlineConnect=0;fontColor=#232F3E;gradientColor=none;fillColor=#ED7100;strokeColor=none;dashed=0;verticalLabelPosition=bottom;verticalAlign=top;align=center;html=1;fontSize=12;fontStyle=0;aspect=fixed;pointerEvents=1;shape=mxgraph.aws4.ecs_service;" vertex="1" parent="t5OwSdyjSk-G459lIH6P-3">
          <mxGeometry x="160" y="40" width="32.5" height="40" as="geometry" />
        </mxCell>
        <mxCell id="h29dOdCf91kiFEEPr48u-325" value="" style="outlineConnect=0;dashed=0;verticalLabelPosition=bottom;verticalAlign=top;align=center;html=1;shape=mxgraph.aws3.elastic_load_balancing;fillColor=#F58536;gradientColor=none;" vertex="1" parent="t5OwSdyjSk-G459lIH6P-3">
          <mxGeometry width="40" height="40" as="geometry" />
        </mxCell>
        <mxCell id="h29dOdCf91kiFEEPr48u-326" style="edgeStyle=orthogonalEdgeStyle;rounded=0;orthogonalLoop=1;jettySize=auto;html=1;" edge="1" parent="t5OwSdyjSk-G459lIH6P-3" source="h29dOdCf91kiFEEPr48u-325" target="h29dOdCf91kiFEEPr48u-313">
          <mxGeometry relative="1" as="geometry" />
        </mxCell>
        <mxCell id="h29dOdCf91kiFEEPr48u-327" style="edgeStyle=orthogonalEdgeStyle;rounded=0;orthogonalLoop=1;jettySize=auto;html=1;" edge="1" parent="t5OwSdyjSk-G459lIH6P-3" source="h29dOdCf91kiFEEPr48u-325" target="h29dOdCf91kiFEEPr48u-315">
          <mxGeometry relative="1" as="geometry">
            <Array as="points">
              <mxPoint x="130" y="20" />
              <mxPoint x="130" y="60" />
            </Array>
          </mxGeometry>
        </mxCell>
        <mxCell id="t5OwSdyjSk-G459lIH6P-10" value="" style="group" vertex="1" connectable="0" parent="h29dOdCf91kiFEEPr48u-304">
          <mxGeometry x="520" y="80" width="160" height="400" as="geometry" />
        </mxCell>
        <mxCell id="h29dOdCf91kiFEEPr48u-282" value="Subnet" style="sketch=0;outlineConnect=0;gradientColor=none;html=1;whiteSpace=wrap;fontSize=12;fontStyle=0;shape=mxgraph.aws4.group;grIcon=mxgraph.aws4.group_subnet;strokeColor=#A680B8;fillColor=none;verticalAlign=top;align=left;spacingLeft=30;fontColor=#879196;dashed=0;" vertex="1" parent="t5OwSdyjSk-G459lIH6P-10">
          <mxGeometry width="160" height="400" as="geometry" />
        </mxCell>
        <mxCell id="h29dOdCf91kiFEEPr48u-283" value="RDS/Oracle" style="shape=cylinder3;whiteSpace=wrap;html=1;boundedLbl=1;backgroundOutline=1;size=15;" vertex="1" parent="t5OwSdyjSk-G459lIH6P-10">
          <mxGeometry x="40" y="40" width="80" height="70" as="geometry" />
        </mxCell>
        <mxCell id="h29dOdCf91kiFEEPr48u-284" value="RDS/MySQL" style="shape=cylinder3;whiteSpace=wrap;html=1;boundedLbl=1;backgroundOutline=1;size=15;" vertex="1" parent="t5OwSdyjSk-G459lIH6P-10">
          <mxGeometry x="40" y="240" width="80" height="70" as="geometry" />
        </mxCell>
        <mxCell id="t5OwSdyjSk-G459lIH6P-11" value="" style="group" vertex="1" connectable="0" parent="h29dOdCf91kiFEEPr48u-304">
          <mxGeometry x="40" y="80" width="120" height="400" as="geometry" />
        </mxCell>
        <mxCell id="h29dOdCf91kiFEEPr48u-277" value="DMZ" style="sketch=0;outlineConnect=0;gradientColor=none;html=1;whiteSpace=wrap;fontSize=12;fontStyle=0;shape=mxgraph.aws4.group;grIcon=mxgraph.aws4.group_subnet;strokeColor=#9AC7BF;fillColor=none;verticalAlign=top;align=left;spacingLeft=30;fontColor=#879196;dashed=0;" vertex="1" parent="t5OwSdyjSk-G459lIH6P-11">
          <mxGeometry width="120" height="400" as="geometry" />
        </mxCell>
        <mxCell id="h29dOdCf91kiFEEPr48u-285" value="" style="sketch=0;outlineConnect=0;fontColor=#232F3E;gradientColor=none;fillColor=#8C4FFF;strokeColor=none;dashed=0;verticalLabelPosition=bottom;verticalAlign=top;align=center;html=1;fontSize=12;fontStyle=0;aspect=fixed;pointerEvents=1;shape=mxgraph.aws4.application_load_balancer;" vertex="1" parent="t5OwSdyjSk-G459lIH6P-11">
          <mxGeometry x="40" y="40" width="40" height="40" as="geometry" />
        </mxCell>
        <mxCell id="h29dOdCf91kiFEEPr48u-317" value="Customer Tracking Web on S3" style="outlineConnect=0;dashed=0;verticalLabelPosition=bottom;verticalAlign=top;align=center;html=1;shape=mxgraph.aws3.bucket_with_objects;fillColor=#E05243;gradientColor=none;" vertex="1" parent="t5OwSdyjSk-G459lIH6P-11">
          <mxGeometry x="40" y="160" width="40" height="40" as="geometry" />
        </mxCell>
        <mxCell id="t5OwSdyjSk-G459lIH6P-13" style="edgeStyle=orthogonalEdgeStyle;rounded=0;orthogonalLoop=1;jettySize=auto;html=1;entryX=0;entryY=0.5;entryDx=0;entryDy=0;entryPerimeter=0;" edge="1" parent="h29dOdCf91kiFEEPr48u-304" source="h29dOdCf91kiFEEPr48u-317" target="h29dOdCf91kiFEEPr48u-325">
          <mxGeometry relative="1" as="geometry" />
        </mxCell>
        <mxCell id="h29dOdCf91kiFEEPr48u-100" style="edgeStyle=orthogonalEdgeStyle;rounded=0;orthogonalLoop=1;jettySize=auto;html=1;entryX=0.5;entryY=1;entryDx=0;entryDy=0;startArrow=classic;startFill=1;" edge="1" parent="1" source="h29dOdCf91kiFEEPr48u-78" target="h29dOdCf91kiFEEPr48u-81">
          <mxGeometry relative="1" as="geometry" />
        </mxCell>
        <mxCell id="h29dOdCf91kiFEEPr48u-1" value="&lt;h1 style=&quot;margin-top: 0px;&quot;&gt;Business Need&lt;/h1&gt;&lt;p&gt;Lorem ipsum dolor sit amet, consectetur adipisicing elit, sed do eiusmod tempor incididunt ut labore et dolore magna aliqua.&lt;/p&gt;" style="text;html=1;whiteSpace=wrap;overflow=hidden;rounded=0;" vertex="1" parent="1">
          <mxGeometry x="40" y="70" width="730" height="440" as="geometry" />
        </mxCell>
        <mxCell id="h29dOdCf91kiFEEPr48u-2" value="&lt;h1 style=&quot;margin-top: 0px;&quot;&gt;AOL Components&lt;/h1&gt;&lt;p&gt;- Order&lt;/p&gt;&lt;p&gt;- Product&lt;/p&gt;&lt;p&gt;- Invoice&lt;/p&gt;&lt;p&gt;- Warehouse&lt;/p&gt;&lt;p&gt;- Routing&lt;/p&gt;&lt;p&gt;- Delivery Note&lt;/p&gt;&lt;p&gt;- Notification&lt;/p&gt;&lt;p&gt;- Member&lt;/p&gt;&lt;p&gt;- POS&lt;/p&gt;&lt;p&gt;- Web/Mobile Application&lt;/p&gt;" style="text;html=1;whiteSpace=wrap;overflow=hidden;rounded=0;strokeColor=default;" vertex="1" parent="1">
          <mxGeometry x="880" y="40" width="270" height="350" as="geometry" />
        </mxCell>
        <mxCell id="h29dOdCf91kiFEEPr48u-24" style="rounded=0;orthogonalLoop=1;jettySize=auto;html=1;entryX=0.5;entryY=1;entryDx=0;entryDy=0;" edge="1" parent="1" source="h29dOdCf91kiFEEPr48u-3" target="h29dOdCf91kiFEEPr48u-14">
          <mxGeometry relative="1" as="geometry" />
        </mxCell>
        <mxCell id="h29dOdCf91kiFEEPr48u-25" style="rounded=0;orthogonalLoop=1;jettySize=auto;html=1;" edge="1" parent="1" source="h29dOdCf91kiFEEPr48u-3" target="h29dOdCf91kiFEEPr48u-15">
          <mxGeometry relative="1" as="geometry" />
        </mxCell>
        <mxCell id="h29dOdCf91kiFEEPr48u-26" style="rounded=0;orthogonalLoop=1;jettySize=auto;html=1;entryX=0;entryY=1;entryDx=0;entryDy=0;" edge="1" parent="1" source="h29dOdCf91kiFEEPr48u-3" target="h29dOdCf91kiFEEPr48u-16">
          <mxGeometry relative="1" as="geometry" />
        </mxCell>
        <mxCell id="h29dOdCf91kiFEEPr48u-27" value="" style="edgeStyle=orthogonalEdgeStyle;rounded=0;orthogonalLoop=1;jettySize=auto;html=1;" edge="1" parent="1" source="h29dOdCf91kiFEEPr48u-3" target="h29dOdCf91kiFEEPr48u-17">
          <mxGeometry relative="1" as="geometry" />
        </mxCell>
        <mxCell id="h29dOdCf91kiFEEPr48u-28" style="rounded=0;orthogonalLoop=1;jettySize=auto;html=1;entryX=0.5;entryY=0;entryDx=0;entryDy=0;" edge="1" parent="1" source="h29dOdCf91kiFEEPr48u-3" target="h29dOdCf91kiFEEPr48u-18">
          <mxGeometry relative="1" as="geometry" />
        </mxCell>
        <mxCell id="h29dOdCf91kiFEEPr48u-29" style="rounded=0;orthogonalLoop=1;jettySize=auto;html=1;" edge="1" parent="1" source="h29dOdCf91kiFEEPr48u-3" target="h29dOdCf91kiFEEPr48u-19">
          <mxGeometry relative="1" as="geometry" />
        </mxCell>
        <mxCell id="h29dOdCf91kiFEEPr48u-30" style="rounded=0;orthogonalLoop=1;jettySize=auto;html=1;" edge="1" parent="1" source="h29dOdCf91kiFEEPr48u-3" target="h29dOdCf91kiFEEPr48u-23">
          <mxGeometry relative="1" as="geometry" />
        </mxCell>
        <mxCell id="h29dOdCf91kiFEEPr48u-31" style="rounded=0;orthogonalLoop=1;jettySize=auto;html=1;entryX=1;entryY=0.5;entryDx=0;entryDy=0;" edge="1" parent="1" source="h29dOdCf91kiFEEPr48u-3" target="h29dOdCf91kiFEEPr48u-22">
          <mxGeometry relative="1" as="geometry" />
        </mxCell>
        <mxCell id="h29dOdCf91kiFEEPr48u-32" style="edgeStyle=orthogonalEdgeStyle;rounded=0;orthogonalLoop=1;jettySize=auto;html=1;entryX=1;entryY=0.5;entryDx=0;entryDy=0;" edge="1" parent="1" source="h29dOdCf91kiFEEPr48u-3" target="h29dOdCf91kiFEEPr48u-21">
          <mxGeometry relative="1" as="geometry" />
        </mxCell>
        <mxCell id="h29dOdCf91kiFEEPr48u-33" style="rounded=0;orthogonalLoop=1;jettySize=auto;html=1;entryX=1;entryY=0.5;entryDx=0;entryDy=0;" edge="1" parent="1" source="h29dOdCf91kiFEEPr48u-3" target="h29dOdCf91kiFEEPr48u-20">
          <mxGeometry relative="1" as="geometry" />
        </mxCell>
        <mxCell id="h29dOdCf91kiFEEPr48u-46" style="rounded=0;orthogonalLoop=1;jettySize=auto;html=1;" edge="1" parent="1" source="h29dOdCf91kiFEEPr48u-3" target="h29dOdCf91kiFEEPr48u-45">
          <mxGeometry relative="1" as="geometry" />
        </mxCell>
        <mxCell id="h29dOdCf91kiFEEPr48u-3" value="AOL" style="ellipse;whiteSpace=wrap;html=1;" vertex="1" parent="1">
          <mxGeometry x="1230" y="590" width="120" height="80" as="geometry" />
        </mxCell>
        <mxCell id="h29dOdCf91kiFEEPr48u-14" value="Order" style="rounded=1;whiteSpace=wrap;html=1;fillColor=#fff2cc;strokeColor=#d6b656;" vertex="1" parent="1">
          <mxGeometry x="1150" y="420" width="120" height="60" as="geometry" />
        </mxCell>
        <mxCell id="h29dOdCf91kiFEEPr48u-15" value="Product" style="rounded=1;whiteSpace=wrap;html=1;fillColor=#fff2cc;strokeColor=#d6b656;" vertex="1" parent="1">
          <mxGeometry x="1310" y="420" width="120" height="60" as="geometry" />
        </mxCell>
        <mxCell id="h29dOdCf91kiFEEPr48u-16" value="Invoice" style="rounded=1;whiteSpace=wrap;html=1;fillColor=#fff2cc;strokeColor=#d6b656;" vertex="1" parent="1">
          <mxGeometry x="1440" y="490" width="120" height="60" as="geometry" />
        </mxCell>
        <mxCell id="h29dOdCf91kiFEEPr48u-17" value="Warehouse" style="rounded=1;whiteSpace=wrap;html=1;fillColor=#fff2cc;strokeColor=#d6b656;" vertex="1" parent="1">
          <mxGeometry x="1440" y="600" width="120" height="60" as="geometry" />
        </mxCell>
        <mxCell id="h29dOdCf91kiFEEPr48u-18" value="Delivery Note" style="rounded=1;whiteSpace=wrap;html=1;fillColor=#fff2cc;strokeColor=#d6b656;" vertex="1" parent="1">
          <mxGeometry x="1370" y="790" width="120" height="60" as="geometry" />
        </mxCell>
        <mxCell id="h29dOdCf91kiFEEPr48u-19" value="Notification" style="rounded=1;whiteSpace=wrap;html=1;fillColor=#fff2cc;strokeColor=#d6b656;" vertex="1" parent="1">
          <mxGeometry x="1230" y="790" width="120" height="60" as="geometry" />
        </mxCell>
        <mxCell id="h29dOdCf91kiFEEPr48u-20" value="POS" style="rounded=1;whiteSpace=wrap;html=1;fillColor=#f5f5f5;fontColor=#333333;strokeColor=#666666;" vertex="1" parent="1">
          <mxGeometry x="1010" y="500" width="120" height="60" as="geometry" />
        </mxCell>
        <mxCell id="h29dOdCf91kiFEEPr48u-21" value="Member" style="rounded=1;whiteSpace=wrap;html=1;fillColor=#f5f5f5;fontColor=#333333;strokeColor=#666666;" vertex="1" parent="1">
          <mxGeometry x="1010" y="600" width="120" height="60" as="geometry" />
        </mxCell>
        <mxCell id="h29dOdCf91kiFEEPr48u-22" value="Web/Mobile Application" style="rounded=1;whiteSpace=wrap;html=1;fillColor=#f5f5f5;fontColor=#333333;strokeColor=#666666;" vertex="1" parent="1">
          <mxGeometry x="1010" y="700" width="120" height="60" as="geometry" />
        </mxCell>
        <mxCell id="h29dOdCf91kiFEEPr48u-23" value="Customer Tracking Web" style="rounded=1;whiteSpace=wrap;html=1;fillColor=#fff2cc;strokeColor=#d6b656;" vertex="1" parent="1">
          <mxGeometry x="1090" y="790" width="120" height="60" as="geometry" />
        </mxCell>
        <mxCell id="h29dOdCf91kiFEEPr48u-45" value="Routing" style="rounded=1;whiteSpace=wrap;html=1;fillColor=#fff2cc;strokeColor=#d6b656;" vertex="1" parent="1">
          <mxGeometry x="1440" y="700" width="120" height="60" as="geometry" />
        </mxCell>
        <mxCell id="h29dOdCf91kiFEEPr48u-99" style="edgeStyle=orthogonalEdgeStyle;rounded=0;orthogonalLoop=1;jettySize=auto;html=1;entryX=0.5;entryY=1;entryDx=0;entryDy=0;startArrow=classic;startFill=1;" edge="1" parent="1" target="h29dOdCf91kiFEEPr48u-78">
          <mxGeometry relative="1" as="geometry">
            <mxPoint x="3710" y="730" as="sourcePoint" />
          </mxGeometry>
        </mxCell>
        <mxCell id="h29dOdCf91kiFEEPr48u-108" value="" style="group" vertex="1" connectable="0" parent="1">
          <mxGeometry x="3680" y="590" width="330" height="70" as="geometry" />
        </mxCell>
        <mxCell id="h29dOdCf91kiFEEPr48u-78" value="" style="rounded=1;whiteSpace=wrap;html=1;fillColor=none;" vertex="1" parent="h29dOdCf91kiFEEPr48u-108">
          <mxGeometry y="10" width="330" height="60" as="geometry" />
        </mxCell>
        <mxCell id="h29dOdCf91kiFEEPr48u-202" value="FTP" style="rounded=1;whiteSpace=wrap;html=1;" vertex="1" parent="h29dOdCf91kiFEEPr48u-108">
          <mxGeometry x="90.0025" y="30" width="61.875" height="20" as="geometry" />
        </mxCell>
        <mxCell id="h29dOdCf91kiFEEPr48u-203" value="NFS" style="rounded=1;whiteSpace=wrap;html=1;" vertex="1" parent="h29dOdCf91kiFEEPr48u-108">
          <mxGeometry x="10.3125" y="30" width="61.875" height="20" as="geometry" />
        </mxCell>
        <mxCell id="h29dOdCf91kiFEEPr48u-205" value="SCP" style="rounded=1;whiteSpace=wrap;html=1;" vertex="1" parent="h29dOdCf91kiFEEPr48u-108">
          <mxGeometry x="170.005" y="30" width="61.875" height="20" as="geometry" />
        </mxCell>
        <mxCell id="h29dOdCf91kiFEEPr48u-206" value="Messaging" style="rounded=1;whiteSpace=wrap;html=1;" vertex="1" parent="h29dOdCf91kiFEEPr48u-108">
          <mxGeometry x="249.995" y="30" width="61.875" height="20" as="geometry" />
        </mxCell>
        <mxCell id="h29dOdCf91kiFEEPr48u-109" value="" style="group" vertex="1" connectable="0" parent="1">
          <mxGeometry x="3740" y="120" width="480" height="430" as="geometry" />
        </mxCell>
        <mxCell id="h29dOdCf91kiFEEPr48u-81" value="" style="rounded=1;whiteSpace=wrap;html=1;fillColor=none;glass=0;shadow=0;" vertex="1" parent="h29dOdCf91kiFEEPr48u-109">
          <mxGeometry y="30" width="480" height="400" as="geometry" />
        </mxCell>
        <mxCell id="h29dOdCf91kiFEEPr48u-82" value="Order Service" style="rounded=1;whiteSpace=wrap;html=1;fillColor=#fff2cc;strokeColor=#d6b656;" vertex="1" parent="h29dOdCf91kiFEEPr48u-109">
          <mxGeometry x="80" y="110" width="120" height="60" as="geometry" />
        </mxCell>
        <mxCell id="h29dOdCf91kiFEEPr48u-83" value="Replacement Order System" style="text;html=1;align=left;verticalAlign=middle;whiteSpace=wrap;rounded=0;" vertex="1" parent="h29dOdCf91kiFEEPr48u-109">
          <mxGeometry width="190" height="30" as="geometry" />
        </mxCell>
        <mxCell id="h29dOdCf91kiFEEPr48u-84" value="Product Service" style="rounded=1;whiteSpace=wrap;html=1;fillColor=#fff2cc;strokeColor=#d6b656;" vertex="1" parent="h29dOdCf91kiFEEPr48u-109">
          <mxGeometry x="80" y="200" width="120" height="60" as="geometry" />
        </mxCell>
        <mxCell id="h29dOdCf91kiFEEPr48u-85" value="Invoice Service" style="rounded=1;whiteSpace=wrap;html=1;fillColor=#fff2cc;strokeColor=#d6b656;" vertex="1" parent="h29dOdCf91kiFEEPr48u-109">
          <mxGeometry x="80" y="290" width="120" height="60" as="geometry" />
        </mxCell>
        <mxCell id="h29dOdCf91kiFEEPr48u-86" value="RDS/Oracle" style="shape=cylinder3;whiteSpace=wrap;html=1;boundedLbl=1;backgroundOutline=1;size=15;fillColor=#fff2cc;strokeColor=#d6b656;" vertex="1" parent="h29dOdCf91kiFEEPr48u-109">
          <mxGeometry x="320" y="200" width="100" height="80" as="geometry" />
        </mxCell>
        <mxCell id="h29dOdCf91kiFEEPr48u-91" style="edgeStyle=orthogonalEdgeStyle;rounded=0;orthogonalLoop=1;jettySize=auto;html=1;" edge="1" parent="h29dOdCf91kiFEEPr48u-109" source="h29dOdCf91kiFEEPr48u-88" target="h29dOdCf91kiFEEPr48u-86">
          <mxGeometry relative="1" as="geometry" />
        </mxCell>
        <mxCell id="h29dOdCf91kiFEEPr48u-88" value="Order Service" style="rounded=1;whiteSpace=wrap;html=1;fillColor=#fff2cc;strokeColor=#d6b656;" vertex="1" parent="h29dOdCf91kiFEEPr48u-109">
          <mxGeometry x="90" y="120" width="120" height="60" as="geometry" />
        </mxCell>
        <mxCell id="h29dOdCf91kiFEEPr48u-92" value="" style="edgeStyle=orthogonalEdgeStyle;rounded=0;orthogonalLoop=1;jettySize=auto;html=1;" edge="1" parent="h29dOdCf91kiFEEPr48u-109" source="h29dOdCf91kiFEEPr48u-89" target="h29dOdCf91kiFEEPr48u-86">
          <mxGeometry relative="1" as="geometry" />
        </mxCell>
        <mxCell id="h29dOdCf91kiFEEPr48u-89" value="Product Service" style="rounded=1;whiteSpace=wrap;html=1;fillColor=#fff2cc;strokeColor=#d6b656;" vertex="1" parent="h29dOdCf91kiFEEPr48u-109">
          <mxGeometry x="90" y="210" width="120" height="60" as="geometry" />
        </mxCell>
        <mxCell id="h29dOdCf91kiFEEPr48u-93" style="edgeStyle=orthogonalEdgeStyle;rounded=0;orthogonalLoop=1;jettySize=auto;html=1;" edge="1" parent="h29dOdCf91kiFEEPr48u-109" source="h29dOdCf91kiFEEPr48u-90" target="h29dOdCf91kiFEEPr48u-86">
          <mxGeometry relative="1" as="geometry" />
        </mxCell>
        <mxCell id="h29dOdCf91kiFEEPr48u-90" value="Invoice Service" style="rounded=1;whiteSpace=wrap;html=1;fillColor=#fff2cc;strokeColor=#d6b656;" vertex="1" parent="h29dOdCf91kiFEEPr48u-109">
          <mxGeometry x="90" y="300" width="120" height="60" as="geometry" />
        </mxCell>
        <mxCell id="h29dOdCf91kiFEEPr48u-140" value="&lt;h1 style=&quot;margin-top: 0px;&quot;&gt;Usecase&lt;/h1&gt;&lt;p&gt;Customer - Make order trough POS, Web/Mobile Application.&lt;br&gt;&lt;span style=&quot;background-color: initial;&quot;&gt;Customer - Track delivery status via Customer Tracking Web.&lt;br&gt;Warehouse Manager - Pull-out and Fill-in or manage warehouse via Warehouse Management System.&lt;br&gt;Warehouse Manager - Setting Route Warehouse Management System.&lt;br&gt;Deliverier - View Delivery Note following order and derlivery to customer&lt;/span&gt;&lt;/p&gt;" style="text;html=1;whiteSpace=wrap;overflow=hidden;rounded=0;strokeColor=default;" vertex="1" parent="1">
          <mxGeometry x="1800" y="40" width="430" height="140" as="geometry" />
        </mxCell>
        <mxCell id="h29dOdCf91kiFEEPr48u-150" value="" style="group" vertex="1" connectable="0" parent="1">
          <mxGeometry x="1740" y="180" width="770" height="790" as="geometry" />
        </mxCell>
        <mxCell id="h29dOdCf91kiFEEPr48u-50" value="" style="rounded=0;whiteSpace=wrap;html=1;fillColor=none;" vertex="1" parent="h29dOdCf91kiFEEPr48u-150">
          <mxGeometry x="60" width="650" height="790" as="geometry" />
        </mxCell>
        <mxCell id="h29dOdCf91kiFEEPr48u-73" style="rounded=0;orthogonalLoop=1;jettySize=auto;html=1;entryX=1;entryY=0.5;entryDx=0;entryDy=0;" edge="1" parent="h29dOdCf91kiFEEPr48u-150" source="h29dOdCf91kiFEEPr48u-34" target="h29dOdCf91kiFEEPr48u-143">
          <mxGeometry relative="1" as="geometry" />
        </mxCell>
        <mxCell id="h29dOdCf91kiFEEPr48u-34" value="Warehouse" style="shape=umlActor;verticalLabelPosition=bottom;verticalAlign=top;html=1;outlineConnect=0;" vertex="1" parent="h29dOdCf91kiFEEPr48u-150">
          <mxGeometry x="740" y="320" width="30" height="60" as="geometry" />
        </mxCell>
        <mxCell id="h29dOdCf91kiFEEPr48u-54" style="rounded=0;orthogonalLoop=1;jettySize=auto;html=1;entryX=0;entryY=0.5;entryDx=0;entryDy=0;edgeStyle=orthogonalEdgeStyle;curved=1;exitX=0.5;exitY=0;exitDx=0;exitDy=0;" edge="1" parent="h29dOdCf91kiFEEPr48u-150" source="h29dOdCf91kiFEEPr48u-36" target="h29dOdCf91kiFEEPr48u-38">
          <mxGeometry relative="1" as="geometry" />
        </mxCell>
        <mxCell id="h29dOdCf91kiFEEPr48u-70" value="" style="edgeStyle=orthogonalEdgeStyle;rounded=0;orthogonalLoop=1;jettySize=auto;html=1;" edge="1" parent="h29dOdCf91kiFEEPr48u-150" source="h29dOdCf91kiFEEPr48u-36" target="h29dOdCf91kiFEEPr48u-39">
          <mxGeometry relative="1" as="geometry" />
        </mxCell>
        <mxCell id="h29dOdCf91kiFEEPr48u-75" style="rounded=0;orthogonalLoop=1;jettySize=auto;html=1;entryX=0;entryY=0;entryDx=0;entryDy=0;" edge="1" parent="h29dOdCf91kiFEEPr48u-150" source="h29dOdCf91kiFEEPr48u-36" target="h29dOdCf91kiFEEPr48u-40">
          <mxGeometry relative="1" as="geometry" />
        </mxCell>
        <mxCell id="h29dOdCf91kiFEEPr48u-55" style="rounded=0;orthogonalLoop=1;jettySize=auto;html=1;entryX=0;entryY=0.5;entryDx=0;entryDy=0;edgeStyle=orthogonalEdgeStyle;curved=1;exitX=0.5;exitY=0;exitDx=0;exitDy=0;" edge="1" parent="h29dOdCf91kiFEEPr48u-150" source="h29dOdCf91kiFEEPr48u-37" target="h29dOdCf91kiFEEPr48u-38">
          <mxGeometry relative="1" as="geometry">
            <Array as="points">
              <mxPoint x="130" y="310" />
              <mxPoint x="130" y="90" />
            </Array>
          </mxGeometry>
        </mxCell>
        <mxCell id="h29dOdCf91kiFEEPr48u-36" value="POS" style="ellipse;whiteSpace=wrap;html=1;fillColor=#f5f5f5;fontColor=#333333;strokeColor=#666666;" vertex="1" parent="h29dOdCf91kiFEEPr48u-150">
          <mxGeometry x="80" y="170" width="120" height="80" as="geometry" />
        </mxCell>
        <mxCell id="h29dOdCf91kiFEEPr48u-71" style="rounded=0;orthogonalLoop=1;jettySize=auto;html=1;entryX=0.212;entryY=0.912;entryDx=0;entryDy=0;entryPerimeter=0;" edge="1" parent="h29dOdCf91kiFEEPr48u-150" source="h29dOdCf91kiFEEPr48u-37" target="h29dOdCf91kiFEEPr48u-39">
          <mxGeometry relative="1" as="geometry" />
        </mxCell>
        <mxCell id="h29dOdCf91kiFEEPr48u-76" value="" style="edgeStyle=orthogonalEdgeStyle;rounded=0;orthogonalLoop=1;jettySize=auto;html=1;" edge="1" parent="h29dOdCf91kiFEEPr48u-150" source="h29dOdCf91kiFEEPr48u-37" target="h29dOdCf91kiFEEPr48u-40">
          <mxGeometry relative="1" as="geometry" />
        </mxCell>
        <mxCell id="h29dOdCf91kiFEEPr48u-37" value="Web/Mobile Applicaion" style="ellipse;whiteSpace=wrap;html=1;fillColor=#f5f5f5;fontColor=#333333;strokeColor=#666666;" vertex="1" parent="h29dOdCf91kiFEEPr48u-150">
          <mxGeometry x="80" y="310" width="120" height="80" as="geometry" />
        </mxCell>
        <mxCell id="h29dOdCf91kiFEEPr48u-38" value="Member" style="ellipse;whiteSpace=wrap;html=1;fillColor=#f5f5f5;fontColor=#333333;strokeColor=#666666;" vertex="1" parent="h29dOdCf91kiFEEPr48u-150">
          <mxGeometry x="240" y="50" width="120" height="80" as="geometry" />
        </mxCell>
        <mxCell id="h29dOdCf91kiFEEPr48u-57" style="edgeStyle=orthogonalEdgeStyle;rounded=0;orthogonalLoop=1;jettySize=auto;html=1;" edge="1" parent="h29dOdCf91kiFEEPr48u-150" source="h29dOdCf91kiFEEPr48u-39" target="h29dOdCf91kiFEEPr48u-41">
          <mxGeometry relative="1" as="geometry" />
        </mxCell>
        <mxCell id="h29dOdCf91kiFEEPr48u-60" style="edgeStyle=orthogonalEdgeStyle;rounded=0;orthogonalLoop=1;jettySize=auto;html=1;" edge="1" parent="h29dOdCf91kiFEEPr48u-150" source="h29dOdCf91kiFEEPr48u-39" target="h29dOdCf91kiFEEPr48u-40">
          <mxGeometry relative="1" as="geometry" />
        </mxCell>
        <mxCell id="h29dOdCf91kiFEEPr48u-72" value="" style="edgeStyle=orthogonalEdgeStyle;rounded=0;orthogonalLoop=1;jettySize=auto;html=1;" edge="1" parent="h29dOdCf91kiFEEPr48u-150" source="h29dOdCf91kiFEEPr48u-39" target="h29dOdCf91kiFEEPr48u-38">
          <mxGeometry relative="1" as="geometry" />
        </mxCell>
        <mxCell id="h29dOdCf91kiFEEPr48u-39" value="Order" style="ellipse;whiteSpace=wrap;html=1;fillColor=#fff2cc;strokeColor=#d6b656;" vertex="1" parent="h29dOdCf91kiFEEPr48u-150">
          <mxGeometry x="240" y="170" width="120" height="80" as="geometry" />
        </mxCell>
        <mxCell id="h29dOdCf91kiFEEPr48u-149" style="edgeStyle=orthogonalEdgeStyle;rounded=0;orthogonalLoop=1;jettySize=auto;html=1;entryX=0;entryY=0.5;entryDx=0;entryDy=0;exitX=0.5;exitY=1;exitDx=0;exitDy=0;curved=1;" edge="1" parent="h29dOdCf91kiFEEPr48u-150" source="h29dOdCf91kiFEEPr48u-40" target="h29dOdCf91kiFEEPr48u-43">
          <mxGeometry relative="1" as="geometry" />
        </mxCell>
        <mxCell id="h29dOdCf91kiFEEPr48u-40" value="Invoice" style="ellipse;whiteSpace=wrap;html=1;fillColor=#fff2cc;strokeColor=#d6b656;" vertex="1" parent="h29dOdCf91kiFEEPr48u-150">
          <mxGeometry x="240" y="310" width="120" height="80" as="geometry" />
        </mxCell>
        <mxCell id="h29dOdCf91kiFEEPr48u-58" style="edgeStyle=orthogonalEdgeStyle;rounded=0;orthogonalLoop=1;jettySize=auto;html=1;entryX=0.5;entryY=0;entryDx=0;entryDy=0;" edge="1" parent="h29dOdCf91kiFEEPr48u-150" source="h29dOdCf91kiFEEPr48u-41" target="h29dOdCf91kiFEEPr48u-42">
          <mxGeometry relative="1" as="geometry" />
        </mxCell>
        <mxCell id="h29dOdCf91kiFEEPr48u-41" value="Product" style="ellipse;whiteSpace=wrap;html=1;fillColor=#fff2cc;strokeColor=#d6b656;" vertex="1" parent="h29dOdCf91kiFEEPr48u-150">
          <mxGeometry x="400" y="170" width="120" height="80" as="geometry" />
        </mxCell>
        <mxCell id="h29dOdCf91kiFEEPr48u-59" style="edgeStyle=orthogonalEdgeStyle;rounded=0;orthogonalLoop=1;jettySize=auto;html=1;entryX=0.5;entryY=1;entryDx=0;entryDy=0;" edge="1" parent="h29dOdCf91kiFEEPr48u-150" source="h29dOdCf91kiFEEPr48u-42" target="h29dOdCf91kiFEEPr48u-41">
          <mxGeometry relative="1" as="geometry" />
        </mxCell>
        <mxCell id="h29dOdCf91kiFEEPr48u-42" value="Warehouse Interface" style="ellipse;whiteSpace=wrap;html=1;fillColor=#fff2cc;strokeColor=#d6b656;" vertex="1" parent="h29dOdCf91kiFEEPr48u-150">
          <mxGeometry x="400" y="310" width="120" height="80" as="geometry" />
        </mxCell>
        <mxCell id="h29dOdCf91kiFEEPr48u-63" style="edgeStyle=orthogonalEdgeStyle;rounded=0;orthogonalLoop=1;jettySize=auto;html=1;exitX=0.5;exitY=1;exitDx=0;exitDy=0;entryX=1;entryY=0.5;entryDx=0;entryDy=0;curved=1;" edge="1" parent="h29dOdCf91kiFEEPr48u-150" source="h29dOdCf91kiFEEPr48u-43" target="h29dOdCf91kiFEEPr48u-44">
          <mxGeometry relative="1" as="geometry" />
        </mxCell>
        <mxCell id="h29dOdCf91kiFEEPr48u-147" style="edgeStyle=orthogonalEdgeStyle;rounded=0;orthogonalLoop=1;jettySize=auto;html=1;entryX=0.5;entryY=1;entryDx=0;entryDy=0;" edge="1" parent="h29dOdCf91kiFEEPr48u-150" source="h29dOdCf91kiFEEPr48u-43" target="h29dOdCf91kiFEEPr48u-47">
          <mxGeometry relative="1" as="geometry" />
        </mxCell>
        <mxCell id="h29dOdCf91kiFEEPr48u-43" value="Deliervy Note" style="ellipse;whiteSpace=wrap;html=1;fillColor=#fff2cc;strokeColor=#d6b656;" vertex="1" parent="h29dOdCf91kiFEEPr48u-150">
          <mxGeometry x="400" y="570" width="120" height="80" as="geometry" />
        </mxCell>
        <mxCell id="h29dOdCf91kiFEEPr48u-64" style="rounded=0;orthogonalLoop=1;jettySize=auto;html=1;edgeStyle=orthogonalEdgeStyle;curved=1;" edge="1" parent="h29dOdCf91kiFEEPr48u-150" source="h29dOdCf91kiFEEPr48u-44" target="h29dOdCf91kiFEEPr48u-48">
          <mxGeometry relative="1" as="geometry">
            <mxPoint x="-50" y="400" as="targetPoint" />
          </mxGeometry>
        </mxCell>
        <mxCell id="h29dOdCf91kiFEEPr48u-44" value="Notification" style="ellipse;whiteSpace=wrap;html=1;fillColor=#fff2cc;strokeColor=#d6b656;" vertex="1" parent="h29dOdCf91kiFEEPr48u-150">
          <mxGeometry x="240" y="680" width="120" height="80" as="geometry" />
        </mxCell>
        <mxCell id="h29dOdCf91kiFEEPr48u-146" value="" style="edgeStyle=orthogonalEdgeStyle;rounded=0;orthogonalLoop=1;jettySize=auto;html=1;" edge="1" parent="h29dOdCf91kiFEEPr48u-150" source="h29dOdCf91kiFEEPr48u-47" target="h29dOdCf91kiFEEPr48u-42">
          <mxGeometry relative="1" as="geometry" />
        </mxCell>
        <mxCell id="h29dOdCf91kiFEEPr48u-47" value="Routing Interface" style="ellipse;whiteSpace=wrap;html=1;fillColor=#fff2cc;strokeColor=#d6b656;" vertex="1" parent="h29dOdCf91kiFEEPr48u-150">
          <mxGeometry x="400" y="440" width="120" height="80" as="geometry" />
        </mxCell>
        <mxCell id="h29dOdCf91kiFEEPr48u-52" style="rounded=0;orthogonalLoop=1;jettySize=auto;html=1;entryX=0;entryY=1;entryDx=0;entryDy=0;" edge="1" parent="h29dOdCf91kiFEEPr48u-150" source="h29dOdCf91kiFEEPr48u-48" target="h29dOdCf91kiFEEPr48u-36">
          <mxGeometry relative="1" as="geometry" />
        </mxCell>
        <mxCell id="h29dOdCf91kiFEEPr48u-53" style="rounded=0;orthogonalLoop=1;jettySize=auto;html=1;" edge="1" parent="h29dOdCf91kiFEEPr48u-150" source="h29dOdCf91kiFEEPr48u-48" target="h29dOdCf91kiFEEPr48u-37">
          <mxGeometry relative="1" as="geometry" />
        </mxCell>
        <mxCell id="h29dOdCf91kiFEEPr48u-141" style="rounded=0;orthogonalLoop=1;jettySize=auto;html=1;entryX=0;entryY=0.5;entryDx=0;entryDy=0;" edge="1" parent="h29dOdCf91kiFEEPr48u-150" source="h29dOdCf91kiFEEPr48u-48" target="h29dOdCf91kiFEEPr48u-56">
          <mxGeometry relative="1" as="geometry" />
        </mxCell>
        <mxCell id="h29dOdCf91kiFEEPr48u-48" value="Customer" style="shape=umlActor;verticalLabelPosition=bottom;verticalAlign=top;html=1;outlineConnect=0;" vertex="1" parent="h29dOdCf91kiFEEPr48u-150">
          <mxGeometry y="320" width="30" height="60" as="geometry" />
        </mxCell>
        <mxCell id="h29dOdCf91kiFEEPr48u-66" style="rounded=0;orthogonalLoop=1;jettySize=auto;html=1;entryX=1;entryY=0.5;entryDx=0;entryDy=0;" edge="1" parent="h29dOdCf91kiFEEPr48u-150" source="h29dOdCf91kiFEEPr48u-49" target="h29dOdCf91kiFEEPr48u-43">
          <mxGeometry relative="1" as="geometry" />
        </mxCell>
        <mxCell id="h29dOdCf91kiFEEPr48u-49" value="Deliverier" style="shape=umlActor;verticalLabelPosition=bottom;verticalAlign=top;html=1;outlineConnect=0;" vertex="1" parent="h29dOdCf91kiFEEPr48u-150">
          <mxGeometry x="740" y="580" width="30" height="60" as="geometry" />
        </mxCell>
        <mxCell id="h29dOdCf91kiFEEPr48u-148" style="edgeStyle=orthogonalEdgeStyle;rounded=0;orthogonalLoop=1;jettySize=auto;html=1;entryX=0;entryY=0.5;entryDx=0;entryDy=0;curved=1;exitX=0.5;exitY=1;exitDx=0;exitDy=0;" edge="1" parent="h29dOdCf91kiFEEPr48u-150" source="h29dOdCf91kiFEEPr48u-56" target="h29dOdCf91kiFEEPr48u-43">
          <mxGeometry relative="1" as="geometry" />
        </mxCell>
        <mxCell id="h29dOdCf91kiFEEPr48u-56" value="Customer Tracking Web" style="ellipse;whiteSpace=wrap;html=1;fillColor=#fff2cc;strokeColor=#d6b656;" vertex="1" parent="h29dOdCf91kiFEEPr48u-150">
          <mxGeometry x="80" y="440" width="120" height="80" as="geometry" />
        </mxCell>
        <mxCell id="h29dOdCf91kiFEEPr48u-144" value="" style="edgeStyle=orthogonalEdgeStyle;rounded=0;orthogonalLoop=1;jettySize=auto;html=1;" edge="1" parent="h29dOdCf91kiFEEPr48u-150" source="h29dOdCf91kiFEEPr48u-143" target="h29dOdCf91kiFEEPr48u-42">
          <mxGeometry relative="1" as="geometry" />
        </mxCell>
        <mxCell id="h29dOdCf91kiFEEPr48u-145" style="edgeStyle=orthogonalEdgeStyle;rounded=0;orthogonalLoop=1;jettySize=auto;html=1;entryX=1;entryY=0.5;entryDx=0;entryDy=0;curved=1;exitX=0.5;exitY=1;exitDx=0;exitDy=0;" edge="1" parent="h29dOdCf91kiFEEPr48u-150" source="h29dOdCf91kiFEEPr48u-143" target="h29dOdCf91kiFEEPr48u-47">
          <mxGeometry relative="1" as="geometry" />
        </mxCell>
        <mxCell id="h29dOdCf91kiFEEPr48u-143" value="Warehouse Management System" style="ellipse;whiteSpace=wrap;html=1;fillColor=#f5f5f5;fontColor=#333333;strokeColor=#666666;" vertex="1" parent="h29dOdCf91kiFEEPr48u-150">
          <mxGeometry x="560" y="310" width="120" height="80" as="geometry" />
        </mxCell>
        <mxCell id="h29dOdCf91kiFEEPr48u-192" value="&lt;h1 style=&quot;margin-top: 0px;&quot;&gt;Order System Architecture High Level&lt;/h1&gt;&lt;p&gt;Order System Architem High Level Design - as exsiting system and integrate with other system such Warehouse Management System and POS&lt;/p&gt;" style="text;html=1;whiteSpace=wrap;overflow=hidden;rounded=0;strokeColor=default;" vertex="1" parent="1">
          <mxGeometry x="2590" y="40" width="510" height="90" as="geometry" />
        </mxCell>
        <mxCell id="h29dOdCf91kiFEEPr48u-195" value="" style="group" vertex="1" connectable="0" parent="1">
          <mxGeometry x="2590" y="130" width="730" height="300" as="geometry" />
        </mxCell>
        <mxCell id="h29dOdCf91kiFEEPr48u-191" value="" style="group;strokeColor=default;container=0;" vertex="1" connectable="0" parent="h29dOdCf91kiFEEPr48u-195">
          <mxGeometry width="730" height="300" as="geometry" />
        </mxCell>
        <mxCell id="h29dOdCf91kiFEEPr48u-156" value="" style="edgeStyle=orthogonalEdgeStyle;rounded=0;orthogonalLoop=1;jettySize=auto;html=1;startArrow=classic;startFill=1;" edge="1" parent="h29dOdCf91kiFEEPr48u-195" source="h29dOdCf91kiFEEPr48u-135" target="h29dOdCf91kiFEEPr48u-154">
          <mxGeometry relative="1" as="geometry" />
        </mxCell>
        <mxCell id="h29dOdCf91kiFEEPr48u-160" style="edgeStyle=orthogonalEdgeStyle;rounded=0;orthogonalLoop=1;jettySize=auto;html=1;entryX=0;entryY=0.25;entryDx=0;entryDy=0;curved=1;startArrow=classic;startFill=1;" edge="1" parent="h29dOdCf91kiFEEPr48u-195" source="h29dOdCf91kiFEEPr48u-138" target="h29dOdCf91kiFEEPr48u-159">
          <mxGeometry relative="1" as="geometry" />
        </mxCell>
        <mxCell id="h29dOdCf91kiFEEPr48u-161" value="" style="edgeStyle=orthogonalEdgeStyle;rounded=0;orthogonalLoop=1;jettySize=auto;html=1;entryX=0;entryY=0.75;entryDx=0;entryDy=0;curved=1;startArrow=classic;startFill=1;" edge="1" parent="h29dOdCf91kiFEEPr48u-195" source="h29dOdCf91kiFEEPr48u-139" target="h29dOdCf91kiFEEPr48u-159">
          <mxGeometry relative="1" as="geometry" />
        </mxCell>
        <mxCell id="h29dOdCf91kiFEEPr48u-157" value="" style="edgeStyle=orthogonalEdgeStyle;rounded=0;orthogonalLoop=1;jettySize=auto;html=1;" edge="1" parent="h29dOdCf91kiFEEPr48u-195" source="h29dOdCf91kiFEEPr48u-151" target="h29dOdCf91kiFEEPr48u-155">
          <mxGeometry relative="1" as="geometry" />
        </mxCell>
        <mxCell id="h29dOdCf91kiFEEPr48u-154" value="IBM MQ" style="rounded=1;whiteSpace=wrap;html=1;" vertex="1" parent="h29dOdCf91kiFEEPr48u-195">
          <mxGeometry x="620" y="80" width="80" height="40" as="geometry" />
        </mxCell>
        <mxCell id="h29dOdCf91kiFEEPr48u-155" value="Storage Server" style="rounded=1;whiteSpace=wrap;html=1;" vertex="1" parent="h29dOdCf91kiFEEPr48u-195">
          <mxGeometry x="620" y="200" width="80" height="40" as="geometry" />
        </mxCell>
        <mxCell id="h29dOdCf91kiFEEPr48u-159" value="Other Systems" style="rounded=1;whiteSpace=wrap;html=1;" vertex="1" parent="h29dOdCf91kiFEEPr48u-195">
          <mxGeometry x="620" y="140" width="80" height="40" as="geometry" />
        </mxCell>
        <mxCell id="h29dOdCf91kiFEEPr48u-123" value="Order System" style="text;html=1;align=left;verticalAlign=middle;whiteSpace=wrap;rounded=0;container=0;" vertex="1" parent="h29dOdCf91kiFEEPr48u-195">
          <mxGeometry x="10" y="20" width="150" height="22.05882352941176" as="geometry" />
        </mxCell>
        <mxCell id="h29dOdCf91kiFEEPr48u-168" value="" style="endArrow=classic;html=1;rounded=0;entryX=0;entryY=0.5;entryDx=0;entryDy=0;startArrow=classic;startFill=1;" edge="1" parent="h29dOdCf91kiFEEPr48u-195" target="h29dOdCf91kiFEEPr48u-133">
          <mxGeometry width="50" height="50" relative="1" as="geometry">
            <mxPoint x="420" y="160" as="sourcePoint" />
            <mxPoint x="500" y="140" as="targetPoint" />
          </mxGeometry>
        </mxCell>
        <mxCell id="h29dOdCf91kiFEEPr48u-193" value="" style="group" vertex="1" connectable="0" parent="h29dOdCf91kiFEEPr48u-195">
          <mxGeometry x="480" y="50" width="100" height="190" as="geometry" />
        </mxCell>
        <mxCell id="h29dOdCf91kiFEEPr48u-190" value="Transfer" style="text;html=1;align=center;verticalAlign=middle;whiteSpace=wrap;rounded=0;" vertex="1" parent="h29dOdCf91kiFEEPr48u-193">
          <mxGeometry width="60" height="30" as="geometry" />
        </mxCell>
        <mxCell id="h29dOdCf91kiFEEPr48u-133" value="" style="rounded=0;whiteSpace=wrap;html=1;fillColor=none;" vertex="1" parent="h29dOdCf91kiFEEPr48u-193">
          <mxGeometry y="30" width="100" height="160" as="geometry" />
        </mxCell>
        <mxCell id="h29dOdCf91kiFEEPr48u-135" value="Messaging" style="rounded=1;whiteSpace=wrap;html=1;" vertex="1" parent="h29dOdCf91kiFEEPr48u-193">
          <mxGeometry x="20" y="40" width="60" height="20" as="geometry" />
        </mxCell>
        <mxCell id="h29dOdCf91kiFEEPr48u-138" value="SCP" style="rounded=1;whiteSpace=wrap;html=1;" vertex="1" parent="h29dOdCf91kiFEEPr48u-193">
          <mxGeometry x="20" y="80" width="60" height="20" as="geometry" />
        </mxCell>
        <mxCell id="h29dOdCf91kiFEEPr48u-139" value="FTP" style="rounded=1;whiteSpace=wrap;html=1;" vertex="1" parent="h29dOdCf91kiFEEPr48u-193">
          <mxGeometry x="20" y="120" width="60" height="20" as="geometry" />
        </mxCell>
        <mxCell id="h29dOdCf91kiFEEPr48u-151" value="NFS" style="rounded=1;whiteSpace=wrap;html=1;" vertex="1" parent="h29dOdCf91kiFEEPr48u-193">
          <mxGeometry x="20" y="160" width="60" height="20" as="geometry" />
        </mxCell>
        <mxCell id="h29dOdCf91kiFEEPr48u-194" value="" style="group" vertex="1" connectable="0" parent="h29dOdCf91kiFEEPr48u-195">
          <mxGeometry x="10" y="42.05882352941177" width="420" height="227.94117647058823" as="geometry" />
        </mxCell>
        <mxCell id="h29dOdCf91kiFEEPr48u-118" value="" style="group;fillColor=default;container=0;strokeColor=default;rounded=1;" vertex="1" connectable="0" parent="h29dOdCf91kiFEEPr48u-194">
          <mxGeometry width="420" height="227.9411764705882" as="geometry" />
        </mxCell>
        <mxCell id="h29dOdCf91kiFEEPr48u-124" value="" style="edgeStyle=orthogonalEdgeStyle;rounded=0;orthogonalLoop=1;jettySize=auto;html=1;entryX=0.5;entryY=0;entryDx=0;entryDy=0;entryPerimeter=0;exitX=1.002;exitY=0.171;exitDx=0;exitDy=0;exitPerimeter=0;" edge="1" parent="h29dOdCf91kiFEEPr48u-194" source="h29dOdCf91kiFEEPr48u-121" target="h29dOdCf91kiFEEPr48u-125">
          <mxGeometry relative="1" as="geometry" />
        </mxCell>
        <mxCell id="h29dOdCf91kiFEEPr48u-125" value="Oracle" style="shape=cylinder3;whiteSpace=wrap;html=1;boundedLbl=1;backgroundOutline=1;size=15;container=0;" vertex="1" parent="h29dOdCf91kiFEEPr48u-194">
          <mxGeometry x="300" y="117.94117647058823" width="70" height="73.3" as="geometry" />
        </mxCell>
        <mxCell id="h29dOdCf91kiFEEPr48u-120" value="&lt;div&gt;IBM Sphere&lt;/div&gt;&lt;div&gt;Server&lt;/div&gt;" style="html=1;shape=mxgraph.er.anchor;whiteSpace=wrap;container=0;" vertex="1" parent="h29dOdCf91kiFEEPr48u-194">
          <mxGeometry x="11.039999999999964" y="3.125" width="48.96" height="218.94852941176467" as="geometry" />
        </mxCell>
        <mxCell id="h29dOdCf91kiFEEPr48u-121" value="&lt;div&gt;&lt;span style=&quot;background-color: initial;&quot;&gt;&lt;br&gt;&lt;/span&gt;&lt;/div&gt;&lt;div&gt;&lt;span style=&quot;background-color: initial;&quot;&gt;Order&lt;/span&gt;&lt;br&gt;&lt;/div&gt;&lt;div&gt;________________________&lt;br&gt;&lt;div&gt;&lt;br&gt;&lt;/div&gt;&lt;div&gt;Product&lt;/div&gt;________________________&lt;div&gt;&lt;br&gt;&lt;/div&gt;&lt;div&gt;Invoice&lt;/div&gt;&lt;div&gt;________________________&lt;br&gt;&lt;/div&gt;&lt;div&gt;&lt;br&gt;&lt;/div&gt;&lt;div&gt;Warehouse Inteterface&lt;/div&gt;&lt;div&gt;________________________&lt;br&gt;&lt;/div&gt;&lt;div&gt;&lt;br&gt;&lt;/div&gt;&lt;div&gt;Routing Interface&lt;/div&gt;&lt;/div&gt;&lt;div&gt;&lt;br&gt;&lt;/div&gt;" style="rounded=1;absoluteArcSize=1;html=1;arcSize=10;whiteSpace=wrap;points=[];strokeColor=default;fillColor=inherit;container=0;" vertex="1" parent="h29dOdCf91kiFEEPr48u-194">
          <mxGeometry x="70" y="5" width="176.67" height="217.94" as="geometry" />
        </mxCell>
        <mxCell id="h29dOdCf91kiFEEPr48u-104" value="Exsiting Order System" style="text;html=1;align=left;verticalAlign=middle;whiteSpace=wrap;rounded=0;container=0;" vertex="1" parent="1">
          <mxGeometry x="3480" y="707.94" width="150" height="22.058823529411768" as="geometry" />
        </mxCell>
        <mxCell id="h29dOdCf91kiFEEPr48u-196" value="" style="group" vertex="1" connectable="0" parent="1">
          <mxGeometry x="3480" y="729.9988235294118" width="420" height="227.94117647058823" as="geometry" />
        </mxCell>
        <mxCell id="h29dOdCf91kiFEEPr48u-197" value="" style="group;fillColor=default;container=0;strokeColor=default;rounded=1;" vertex="1" connectable="0" parent="h29dOdCf91kiFEEPr48u-196">
          <mxGeometry width="420" height="227.9411764705882" as="geometry" />
        </mxCell>
        <mxCell id="h29dOdCf91kiFEEPr48u-198" value="" style="edgeStyle=orthogonalEdgeStyle;rounded=0;orthogonalLoop=1;jettySize=auto;html=1;entryX=0.5;entryY=0;entryDx=0;entryDy=0;entryPerimeter=0;exitX=1.002;exitY=0.171;exitDx=0;exitDy=0;exitPerimeter=0;" edge="1" parent="h29dOdCf91kiFEEPr48u-196" source="h29dOdCf91kiFEEPr48u-201" target="h29dOdCf91kiFEEPr48u-199">
          <mxGeometry relative="1" as="geometry" />
        </mxCell>
        <mxCell id="h29dOdCf91kiFEEPr48u-199" value="Oracle" style="shape=cylinder3;whiteSpace=wrap;html=1;boundedLbl=1;backgroundOutline=1;size=15;container=0;" vertex="1" parent="h29dOdCf91kiFEEPr48u-196">
          <mxGeometry x="300" y="117.94117647058823" width="70" height="73.3" as="geometry" />
        </mxCell>
        <mxCell id="h29dOdCf91kiFEEPr48u-200" value="&lt;div&gt;IBM Sphere&lt;/div&gt;&lt;div&gt;Server&lt;/div&gt;" style="html=1;shape=mxgraph.er.anchor;whiteSpace=wrap;container=0;" vertex="1" parent="h29dOdCf91kiFEEPr48u-196">
          <mxGeometry x="11.039999999999964" y="3.125" width="48.96" height="218.94852941176467" as="geometry" />
        </mxCell>
        <mxCell id="h29dOdCf91kiFEEPr48u-201" value="&lt;div&gt;&lt;br&gt;&lt;/div&gt;Order&lt;div&gt;________________________&lt;br&gt;&lt;div&gt;&lt;br&gt;&lt;/div&gt;&lt;div&gt;Product&lt;/div&gt;________________________&lt;div&gt;&lt;br&gt;&lt;/div&gt;&lt;div&gt;Invoice&lt;/div&gt;&lt;div&gt;________________________&lt;br&gt;&lt;/div&gt;&lt;div&gt;&lt;br&gt;&lt;/div&gt;&lt;div&gt;Warehouse Inteterface&lt;/div&gt;&lt;div&gt;________________________&lt;br&gt;&lt;/div&gt;&lt;div&gt;&lt;br&gt;&lt;/div&gt;&lt;div&gt;Routing Interface&lt;/div&gt;&lt;/div&gt;&lt;div&gt;&lt;br&gt;&lt;/div&gt;" style="rounded=1;absoluteArcSize=1;html=1;arcSize=10;whiteSpace=wrap;points=[];strokeColor=default;fillColor=inherit;container=0;" vertex="1" parent="h29dOdCf91kiFEEPr48u-196">
          <mxGeometry x="70" y="10" width="176.67" height="207.94" as="geometry" />
        </mxCell>
        <mxCell id="h29dOdCf91kiFEEPr48u-271" value="" style="group" vertex="1" connectable="0" parent="1">
          <mxGeometry x="4320" y="90" width="700" height="800" as="geometry" />
        </mxCell>
        <mxCell id="h29dOdCf91kiFEEPr48u-264" style="edgeStyle=orthogonalEdgeStyle;rounded=0;orthogonalLoop=1;jettySize=auto;html=1;entryX=0.75;entryY=0;entryDx=0;entryDy=0;" edge="1" parent="h29dOdCf91kiFEEPr48u-271" source="h29dOdCf91kiFEEPr48u-222" target="h29dOdCf91kiFEEPr48u-256">
          <mxGeometry relative="1" as="geometry" />
        </mxCell>
        <mxCell id="h29dOdCf91kiFEEPr48u-233" value="" style="group" vertex="1" connectable="0" parent="h29dOdCf91kiFEEPr48u-271">
          <mxGeometry width="330" height="330" as="geometry" />
        </mxCell>
        <mxCell id="h29dOdCf91kiFEEPr48u-208" value="" style="rounded=1;whiteSpace=wrap;html=1;fillColor=none;glass=0;shadow=0;" vertex="1" parent="h29dOdCf91kiFEEPr48u-233">
          <mxGeometry y="30" width="330" height="300" as="geometry" />
        </mxCell>
        <mxCell id="h29dOdCf91kiFEEPr48u-209" value="Order Service" style="rounded=1;whiteSpace=wrap;html=1;fillColor=#fff2cc;strokeColor=#d6b656;" vertex="1" parent="h29dOdCf91kiFEEPr48u-233">
          <mxGeometry x="40" y="60" width="120" height="60" as="geometry" />
        </mxCell>
        <mxCell id="h29dOdCf91kiFEEPr48u-210" value="Order Tier" style="text;html=1;align=left;verticalAlign=middle;whiteSpace=wrap;rounded=0;" vertex="1" parent="h29dOdCf91kiFEEPr48u-233">
          <mxGeometry width="190" height="30" as="geometry" />
        </mxCell>
        <mxCell id="h29dOdCf91kiFEEPr48u-211" value="Product Service" style="rounded=1;whiteSpace=wrap;html=1;fillColor=#fff2cc;strokeColor=#d6b656;" vertex="1" parent="h29dOdCf91kiFEEPr48u-233">
          <mxGeometry x="40" y="150" width="120" height="60" as="geometry" />
        </mxCell>
        <mxCell id="h29dOdCf91kiFEEPr48u-212" value="Invoice Service" style="rounded=1;whiteSpace=wrap;html=1;fillColor=#fff2cc;strokeColor=#d6b656;" vertex="1" parent="h29dOdCf91kiFEEPr48u-233">
          <mxGeometry x="40" y="240" width="120" height="60" as="geometry" />
        </mxCell>
        <mxCell id="h29dOdCf91kiFEEPr48u-213" value="RDS/Oracle" style="shape=cylinder3;whiteSpace=wrap;html=1;boundedLbl=1;backgroundOutline=1;size=15;fillColor=#fff2cc;strokeColor=#d6b656;" vertex="1" parent="h29dOdCf91kiFEEPr48u-233">
          <mxGeometry x="210" y="150" width="100" height="80" as="geometry" />
        </mxCell>
        <mxCell id="h29dOdCf91kiFEEPr48u-214" style="edgeStyle=orthogonalEdgeStyle;rounded=0;orthogonalLoop=1;jettySize=auto;html=1;" edge="1" parent="h29dOdCf91kiFEEPr48u-233" source="h29dOdCf91kiFEEPr48u-215" target="h29dOdCf91kiFEEPr48u-213">
          <mxGeometry relative="1" as="geometry" />
        </mxCell>
        <mxCell id="h29dOdCf91kiFEEPr48u-215" value="Order Service" style="rounded=1;whiteSpace=wrap;html=1;fillColor=#fff2cc;strokeColor=#d6b656;" vertex="1" parent="h29dOdCf91kiFEEPr48u-233">
          <mxGeometry x="50" y="70" width="120" height="60" as="geometry" />
        </mxCell>
        <mxCell id="h29dOdCf91kiFEEPr48u-216" value="" style="edgeStyle=orthogonalEdgeStyle;rounded=0;orthogonalLoop=1;jettySize=auto;html=1;" edge="1" parent="h29dOdCf91kiFEEPr48u-233" source="h29dOdCf91kiFEEPr48u-217" target="h29dOdCf91kiFEEPr48u-213">
          <mxGeometry relative="1" as="geometry" />
        </mxCell>
        <mxCell id="h29dOdCf91kiFEEPr48u-217" value="Product Service" style="rounded=1;whiteSpace=wrap;html=1;fillColor=#fff2cc;strokeColor=#d6b656;" vertex="1" parent="h29dOdCf91kiFEEPr48u-233">
          <mxGeometry x="50" y="160" width="120" height="60" as="geometry" />
        </mxCell>
        <mxCell id="h29dOdCf91kiFEEPr48u-218" style="edgeStyle=orthogonalEdgeStyle;rounded=0;orthogonalLoop=1;jettySize=auto;html=1;" edge="1" parent="h29dOdCf91kiFEEPr48u-233" source="h29dOdCf91kiFEEPr48u-219" target="h29dOdCf91kiFEEPr48u-213">
          <mxGeometry relative="1" as="geometry" />
        </mxCell>
        <mxCell id="h29dOdCf91kiFEEPr48u-219" value="Invoice Service" style="rounded=1;whiteSpace=wrap;html=1;fillColor=#fff2cc;strokeColor=#d6b656;" vertex="1" parent="h29dOdCf91kiFEEPr48u-233">
          <mxGeometry x="50" y="250" width="120" height="60" as="geometry" />
        </mxCell>
        <mxCell id="h29dOdCf91kiFEEPr48u-262" style="edgeStyle=orthogonalEdgeStyle;rounded=0;orthogonalLoop=1;jettySize=auto;html=1;entryX=0.75;entryY=1;entryDx=0;entryDy=0;exitX=0.75;exitY=0;exitDx=0;exitDy=0;" edge="1" parent="h29dOdCf91kiFEEPr48u-271" source="h29dOdCf91kiFEEPr48u-234" target="h29dOdCf91kiFEEPr48u-256">
          <mxGeometry relative="1" as="geometry" />
        </mxCell>
        <mxCell id="h29dOdCf91kiFEEPr48u-242" value="" style="group" vertex="1" connectable="0" parent="h29dOdCf91kiFEEPr48u-271">
          <mxGeometry y="470" width="330" height="330" as="geometry" />
        </mxCell>
        <mxCell id="h29dOdCf91kiFEEPr48u-243" value="" style="rounded=1;whiteSpace=wrap;html=1;fillColor=none;glass=0;shadow=0;" vertex="1" parent="h29dOdCf91kiFEEPr48u-242">
          <mxGeometry y="30" width="330" height="300" as="geometry" />
        </mxCell>
        <mxCell id="h29dOdCf91kiFEEPr48u-245" value="Customer Tier" style="text;html=1;align=left;verticalAlign=middle;whiteSpace=wrap;rounded=0;" vertex="1" parent="h29dOdCf91kiFEEPr48u-242">
          <mxGeometry width="190" height="30" as="geometry" />
        </mxCell>
        <mxCell id="h29dOdCf91kiFEEPr48u-250" value="POS" style="rounded=1;whiteSpace=wrap;html=1;fillColor=#fff2cc;strokeColor=#d6b656;" vertex="1" parent="h29dOdCf91kiFEEPr48u-242">
          <mxGeometry x="105" y="60" width="120" height="60" as="geometry" />
        </mxCell>
        <mxCell id="h29dOdCf91kiFEEPr48u-252" value="Web / Mobile Application" style="rounded=1;whiteSpace=wrap;html=1;fillColor=#fff2cc;strokeColor=#d6b656;" vertex="1" parent="h29dOdCf91kiFEEPr48u-242">
          <mxGeometry x="105" y="150" width="120" height="60" as="geometry" />
        </mxCell>
        <mxCell id="h29dOdCf91kiFEEPr48u-254" value="Customer Tracking Web" style="rounded=1;whiteSpace=wrap;html=1;fillColor=#fff2cc;strokeColor=#d6b656;" vertex="1" parent="h29dOdCf91kiFEEPr48u-242">
          <mxGeometry x="105" y="240" width="120" height="60" as="geometry" />
        </mxCell>
        <mxCell id="h29dOdCf91kiFEEPr48u-261" style="edgeStyle=orthogonalEdgeStyle;rounded=0;orthogonalLoop=1;jettySize=auto;html=1;entryX=0.25;entryY=1;entryDx=0;entryDy=0;" edge="1" parent="h29dOdCf91kiFEEPr48u-271" source="h29dOdCf91kiFEEPr48u-243" target="h29dOdCf91kiFEEPr48u-256">
          <mxGeometry relative="1" as="geometry" />
        </mxCell>
        <mxCell id="h29dOdCf91kiFEEPr48u-263" style="edgeStyle=orthogonalEdgeStyle;rounded=0;orthogonalLoop=1;jettySize=auto;html=1;entryX=0.25;entryY=0;entryDx=0;entryDy=0;" edge="1" parent="h29dOdCf91kiFEEPr48u-271" source="h29dOdCf91kiFEEPr48u-208" target="h29dOdCf91kiFEEPr48u-256">
          <mxGeometry relative="1" as="geometry" />
        </mxCell>
        <mxCell id="h29dOdCf91kiFEEPr48u-256" value="" style="rounded=1;whiteSpace=wrap;html=1;fillColor=none;" vertex="1" parent="h29dOdCf91kiFEEPr48u-271">
          <mxGeometry x="120" y="380" width="420" height="60" as="geometry" />
        </mxCell>
        <mxCell id="h29dOdCf91kiFEEPr48u-257" value="FTP" style="rounded=1;whiteSpace=wrap;html=1;" vertex="1" parent="h29dOdCf91kiFEEPr48u-271">
          <mxGeometry x="299.0625" y="400" width="61.875" height="20" as="geometry" />
        </mxCell>
        <mxCell id="h29dOdCf91kiFEEPr48u-258" value="NFS" style="rounded=1;whiteSpace=wrap;html=1;" vertex="1" parent="h29dOdCf91kiFEEPr48u-271">
          <mxGeometry x="220.0024999999996" y="400" width="61.875" height="20" as="geometry" />
        </mxCell>
        <mxCell id="h29dOdCf91kiFEEPr48u-259" value="SCP" style="rounded=1;whiteSpace=wrap;html=1;" vertex="1" parent="h29dOdCf91kiFEEPr48u-271">
          <mxGeometry x="380.0050000000001" y="400" width="61.875" height="20" as="geometry" />
        </mxCell>
        <mxCell id="h29dOdCf91kiFEEPr48u-260" value="Messaging" style="rounded=1;whiteSpace=wrap;html=1;" vertex="1" parent="h29dOdCf91kiFEEPr48u-271">
          <mxGeometry x="460.0050000000001" y="400" width="61.875" height="20" as="geometry" />
        </mxCell>
        <mxCell id="h29dOdCf91kiFEEPr48u-265" value="API" style="rounded=1;whiteSpace=wrap;html=1;" vertex="1" parent="h29dOdCf91kiFEEPr48u-271">
          <mxGeometry x="140" y="400" width="60" height="20" as="geometry" />
        </mxCell>
        <mxCell id="h29dOdCf91kiFEEPr48u-268" value="" style="group" vertex="1" connectable="0" parent="h29dOdCf91kiFEEPr48u-271">
          <mxGeometry x="370" y="470" width="330" height="330" as="geometry" />
        </mxCell>
        <mxCell id="h29dOdCf91kiFEEPr48u-234" value="" style="rounded=1;whiteSpace=wrap;html=1;fillColor=none;glass=0;shadow=0;" vertex="1" parent="h29dOdCf91kiFEEPr48u-268">
          <mxGeometry y="30" width="330" height="300" as="geometry" />
        </mxCell>
        <mxCell id="h29dOdCf91kiFEEPr48u-267" value="Delivery Note &amp;amp; Notification Tier" style="text;html=1;align=left;verticalAlign=middle;whiteSpace=wrap;rounded=0;" vertex="1" parent="h29dOdCf91kiFEEPr48u-268">
          <mxGeometry width="200" height="30" as="geometry" />
        </mxCell>
        <mxCell id="h29dOdCf91kiFEEPr48u-269" value="" style="group" vertex="1" connectable="0" parent="h29dOdCf91kiFEEPr48u-271">
          <mxGeometry x="370" width="330" height="330" as="geometry" />
        </mxCell>
        <mxCell id="h29dOdCf91kiFEEPr48u-222" value="" style="rounded=1;whiteSpace=wrap;html=1;fillColor=none;glass=0;shadow=0;" vertex="1" parent="h29dOdCf91kiFEEPr48u-269">
          <mxGeometry y="30" width="330" height="300" as="geometry" />
        </mxCell>
        <mxCell id="h29dOdCf91kiFEEPr48u-226" value="RDS/Oracle" style="shape=cylinder3;whiteSpace=wrap;html=1;boundedLbl=1;backgroundOutline=1;size=15;fillColor=#fff2cc;strokeColor=#d6b656;" vertex="1" parent="h29dOdCf91kiFEEPr48u-269">
          <mxGeometry x="210" y="150" width="100" height="80" as="geometry" />
        </mxCell>
        <mxCell id="h29dOdCf91kiFEEPr48u-227" style="edgeStyle=orthogonalEdgeStyle;rounded=0;orthogonalLoop=1;jettySize=auto;html=1;" edge="1" parent="h29dOdCf91kiFEEPr48u-269" source="h29dOdCf91kiFEEPr48u-228" target="h29dOdCf91kiFEEPr48u-226">
          <mxGeometry relative="1" as="geometry" />
        </mxCell>
        <mxCell id="h29dOdCf91kiFEEPr48u-228" value="Warehouse Interface" style="rounded=1;whiteSpace=wrap;html=1;fillColor=#fff2cc;strokeColor=#d6b656;" vertex="1" parent="h29dOdCf91kiFEEPr48u-269">
          <mxGeometry x="50" y="70" width="120" height="60" as="geometry" />
        </mxCell>
        <mxCell id="h29dOdCf91kiFEEPr48u-229" value="" style="edgeStyle=orthogonalEdgeStyle;rounded=0;orthogonalLoop=1;jettySize=auto;html=1;" edge="1" parent="h29dOdCf91kiFEEPr48u-269" source="h29dOdCf91kiFEEPr48u-230" target="h29dOdCf91kiFEEPr48u-226">
          <mxGeometry relative="1" as="geometry" />
        </mxCell>
        <mxCell id="h29dOdCf91kiFEEPr48u-230" value="Routing Interface" style="rounded=1;whiteSpace=wrap;html=1;fillColor=#fff2cc;strokeColor=#d6b656;" vertex="1" parent="h29dOdCf91kiFEEPr48u-269">
          <mxGeometry x="50" y="160" width="120" height="60" as="geometry" />
        </mxCell>
        <mxCell id="h29dOdCf91kiFEEPr48u-266" value="Warehouse Tier" style="text;html=1;align=left;verticalAlign=middle;whiteSpace=wrap;rounded=0;" vertex="1" parent="h29dOdCf91kiFEEPr48u-269">
          <mxGeometry width="190" height="30" as="geometry" />
        </mxCell>
        <mxCell id="h29dOdCf91kiFEEPr48u-270" value="" style="group" vertex="1" connectable="0" parent="h29dOdCf91kiFEEPr48u-271">
          <mxGeometry x="420" y="540" width="260" height="160" as="geometry" />
        </mxCell>
        <mxCell id="h29dOdCf91kiFEEPr48u-235" value="RDS/Oracle" style="shape=cylinder3;whiteSpace=wrap;html=1;boundedLbl=1;backgroundOutline=1;size=15;fillColor=#fff2cc;strokeColor=#d6b656;" vertex="1" parent="h29dOdCf91kiFEEPr48u-270">
          <mxGeometry x="160" y="80" width="100" height="80" as="geometry" />
        </mxCell>
        <mxCell id="h29dOdCf91kiFEEPr48u-236" style="edgeStyle=orthogonalEdgeStyle;rounded=0;orthogonalLoop=1;jettySize=auto;html=1;" edge="1" parent="h29dOdCf91kiFEEPr48u-270" source="h29dOdCf91kiFEEPr48u-237" target="h29dOdCf91kiFEEPr48u-235">
          <mxGeometry relative="1" as="geometry" />
        </mxCell>
        <mxCell id="h29dOdCf91kiFEEPr48u-237" value="Delivery Note" style="rounded=1;whiteSpace=wrap;html=1;fillColor=#fff2cc;strokeColor=#d6b656;" vertex="1" parent="h29dOdCf91kiFEEPr48u-270">
          <mxGeometry width="120" height="60" as="geometry" />
        </mxCell>
        <mxCell id="h29dOdCf91kiFEEPr48u-238" value="" style="edgeStyle=orthogonalEdgeStyle;rounded=0;orthogonalLoop=1;jettySize=auto;html=1;" edge="1" parent="h29dOdCf91kiFEEPr48u-270" source="h29dOdCf91kiFEEPr48u-239" target="h29dOdCf91kiFEEPr48u-235">
          <mxGeometry relative="1" as="geometry" />
        </mxCell>
        <mxCell id="h29dOdCf91kiFEEPr48u-239" value="Notification" style="rounded=1;whiteSpace=wrap;html=1;fillColor=#fff2cc;strokeColor=#d6b656;" vertex="1" parent="h29dOdCf91kiFEEPr48u-270">
          <mxGeometry y="90" width="120" height="60" as="geometry" />
        </mxCell>
        <mxCell id="h29dOdCf91kiFEEPr48u-288" value="Region :&amp;nbsp;ap-southeast-1" style="points=[[0,0],[0.25,0],[0.5,0],[0.75,0],[1,0],[1,0.25],[1,0.5],[1,0.75],[1,1],[0.75,1],[0.5,1],[0.25,1],[0,1],[0,0.75],[0,0.5],[0,0.25]];outlineConnect=0;gradientColor=none;html=1;whiteSpace=wrap;fontSize=12;fontStyle=0;container=1;pointerEvents=0;collapsible=0;recursiveResize=0;shape=mxgraph.aws4.group;grIcon=mxgraph.aws4.group_region;strokeColor=#00A4A6;fillColor=none;verticalAlign=top;align=left;spacingLeft=30;fontColor=#147EBA;dashed=1;" vertex="1" parent="1">
          <mxGeometry x="5120" y="40" width="800" height="830" as="geometry" />
        </mxCell>
        <mxCell id="h29dOdCf91kiFEEPr48u-303" value="VPC" style="points=[[0,0],[0.25,0],[0.5,0],[0.75,0],[1,0],[1,0.25],[1,0.5],[1,0.75],[1,1],[0.75,1],[0.5,1],[0.25,1],[0,1],[0,0.75],[0,0.5],[0,0.25]];outlineConnect=0;gradientColor=none;html=1;whiteSpace=wrap;fontSize=12;fontStyle=0;container=1;pointerEvents=0;collapsible=0;recursiveResize=0;shape=mxgraph.aws4.group;grIcon=mxgraph.aws4.group_vpc2;strokeColor=#8C4FFF;fillColor=none;verticalAlign=top;align=left;spacingLeft=30;fontColor=#AAB7B8;dashed=0;" vertex="1" parent="h29dOdCf91kiFEEPr48u-288">
          <mxGeometry x="40" y="80" width="700" height="640" as="geometry" />
        </mxCell>
        <mxCell id="h29dOdCf91kiFEEPr48u-300" value="" style="group" vertex="1" connectable="0" parent="h29dOdCf91kiFEEPr48u-303">
          <mxGeometry x="80" y="40" width="240" height="520" as="geometry" />
        </mxCell>
        <mxCell id="h29dOdCf91kiFEEPr48u-290" value="ap-southeast-1a" style="sketch=0;outlineConnect=0;gradientColor=none;html=1;whiteSpace=wrap;fontSize=12;fontStyle=0;shape=mxgraph.aws4.group;grIcon=mxgraph.aws4.group_availability_zone;strokeColor=#545B64;fillColor=none;verticalAlign=top;align=left;spacingLeft=30;fontColor=#545B64;dashed=1;" vertex="1" parent="h29dOdCf91kiFEEPr48u-300">
          <mxGeometry width="240" height="520" as="geometry" />
        </mxCell>
        <mxCell id="h29dOdCf91kiFEEPr48u-292" value="DMZ" style="sketch=0;outlineConnect=0;gradientColor=none;html=1;whiteSpace=wrap;fontSize=12;fontStyle=0;shape=mxgraph.aws4.group;grIcon=mxgraph.aws4.group_subnet;strokeColor=#9AC7BF;fillColor=none;verticalAlign=top;align=left;spacingLeft=30;fontColor=#879196;dashed=0;" vertex="1" parent="h29dOdCf91kiFEEPr48u-300">
          <mxGeometry x="40" y="40" width="160" height="120" as="geometry" />
        </mxCell>
        <mxCell id="h29dOdCf91kiFEEPr48u-294" value="Subnet" style="sketch=0;outlineConnect=0;gradientColor=none;html=1;whiteSpace=wrap;fontSize=12;fontStyle=0;shape=mxgraph.aws4.group;grIcon=mxgraph.aws4.group_subnet;strokeColor=#FFB570;fillColor=none;verticalAlign=top;align=left;spacingLeft=30;fontColor=#879196;dashed=0;" vertex="1" parent="h29dOdCf91kiFEEPr48u-300">
          <mxGeometry x="40" y="200" width="160" height="120" as="geometry" />
        </mxCell>
        <mxCell id="h29dOdCf91kiFEEPr48u-295" value="Subnet" style="sketch=0;outlineConnect=0;gradientColor=none;html=1;whiteSpace=wrap;fontSize=12;fontStyle=0;shape=mxgraph.aws4.group;grIcon=mxgraph.aws4.group_subnet;strokeColor=#A680B8;fillColor=none;verticalAlign=top;align=left;spacingLeft=30;fontColor=#879196;dashed=0;" vertex="1" parent="h29dOdCf91kiFEEPr48u-300">
          <mxGeometry x="40" y="360" width="160" height="120" as="geometry" />
        </mxCell>
        <mxCell id="h29dOdCf91kiFEEPr48u-301" value="" style="group" vertex="1" connectable="0" parent="h29dOdCf91kiFEEPr48u-303">
          <mxGeometry x="400" y="40" width="240" height="520" as="geometry" />
        </mxCell>
        <mxCell id="h29dOdCf91kiFEEPr48u-291" value="ap-southeast-1b" style="sketch=0;outlineConnect=0;gradientColor=none;html=1;whiteSpace=wrap;fontSize=12;fontStyle=0;shape=mxgraph.aws4.group;grIcon=mxgraph.aws4.group_availability_zone;strokeColor=#545B64;fillColor=none;verticalAlign=top;align=left;spacingLeft=30;fontColor=#545B64;dashed=1;" vertex="1" parent="h29dOdCf91kiFEEPr48u-301">
          <mxGeometry width="240" height="520" as="geometry" />
        </mxCell>
        <mxCell id="h29dOdCf91kiFEEPr48u-296" value="DMZ" style="sketch=0;outlineConnect=0;gradientColor=none;html=1;whiteSpace=wrap;fontSize=12;fontStyle=0;shape=mxgraph.aws4.group;grIcon=mxgraph.aws4.group_subnet;strokeColor=#9AC7BF;fillColor=none;verticalAlign=top;align=left;spacingLeft=30;fontColor=#879196;dashed=0;" vertex="1" parent="h29dOdCf91kiFEEPr48u-301">
          <mxGeometry x="40" y="40" width="160" height="120" as="geometry" />
        </mxCell>
        <mxCell id="h29dOdCf91kiFEEPr48u-297" value="Subnet" style="sketch=0;outlineConnect=0;gradientColor=none;html=1;whiteSpace=wrap;fontSize=12;fontStyle=0;shape=mxgraph.aws4.group;grIcon=mxgraph.aws4.group_subnet;strokeColor=#FFB570;fillColor=none;verticalAlign=top;align=left;spacingLeft=30;fontColor=#879196;dashed=0;" vertex="1" parent="h29dOdCf91kiFEEPr48u-301">
          <mxGeometry x="40" y="200" width="160" height="120" as="geometry" />
        </mxCell>
        <mxCell id="h29dOdCf91kiFEEPr48u-298" value="Subnet" style="sketch=0;outlineConnect=0;gradientColor=none;html=1;whiteSpace=wrap;fontSize=12;fontStyle=0;shape=mxgraph.aws4.group;grIcon=mxgraph.aws4.group_subnet;strokeColor=#A680B8;fillColor=none;verticalAlign=top;align=left;spacingLeft=30;fontColor=#879196;dashed=0;" vertex="1" parent="h29dOdCf91kiFEEPr48u-301">
          <mxGeometry x="40" y="360" width="160" height="120" as="geometry" />
        </mxCell>
        <mxCell id="h29dOdCf91kiFEEPr48u-331" value="" style="edgeStyle=orthogonalEdgeStyle;rounded=0;orthogonalLoop=1;jettySize=auto;html=1;" edge="1" parent="1" source="h29dOdCf91kiFEEPr48u-329" target="h29dOdCf91kiFEEPr48u-330">
          <mxGeometry relative="1" as="geometry" />
        </mxCell>
        <mxCell id="h29dOdCf91kiFEEPr48u-329" value="" style="outlineConnect=0;dashed=0;verticalLabelPosition=bottom;verticalAlign=top;align=center;html=1;shape=mxgraph.aws3.internet_gateway;fillColor=#F58536;gradientColor=none;" vertex="1" parent="1">
          <mxGeometry x="5990" y="40" width="40" height="40" as="geometry" />
        </mxCell>
        <mxCell id="h29dOdCf91kiFEEPr48u-332" value="" style="edgeStyle=orthogonalEdgeStyle;rounded=0;orthogonalLoop=1;jettySize=auto;html=1;" edge="1" parent="1" source="h29dOdCf91kiFEEPr48u-330" target="h29dOdCf91kiFEEPr48u-305">
          <mxGeometry relative="1" as="geometry" />
        </mxCell>
        <mxCell id="h29dOdCf91kiFEEPr48u-333" style="edgeStyle=orthogonalEdgeStyle;rounded=0;orthogonalLoop=1;jettySize=auto;html=1;entryX=0;entryY=0.5;entryDx=0;entryDy=0;entryPerimeter=0;" edge="1" parent="1" source="h29dOdCf91kiFEEPr48u-330" target="t5OwSdyjSk-G459lIH6P-8">
          <mxGeometry relative="1" as="geometry">
            <mxPoint x="6110" y="210" as="targetPoint" />
            <Array as="points">
              <mxPoint x="6010" y="540" />
            </Array>
          </mxGeometry>
        </mxCell>
        <mxCell id="h29dOdCf91kiFEEPr48u-330" value="" style="sketch=0;points=[[0,0,0],[0.25,0,0],[0.5,0,0],[0.75,0,0],[1,0,0],[0,1,0],[0.25,1,0],[0.5,1,0],[0.75,1,0],[1,1,0],[0,0.25,0],[0,0.5,0],[0,0.75,0],[1,0.25,0],[1,0.5,0],[1,0.75,0]];outlineConnect=0;fontColor=#232F3E;fillColor=#DD344C;strokeColor=#ffffff;dashed=0;verticalLabelPosition=bottom;verticalAlign=top;align=center;html=1;fontSize=12;fontStyle=0;aspect=fixed;shape=mxgraph.aws4.resourceIcon;resIcon=mxgraph.aws4.waf;" vertex="1" parent="1">
          <mxGeometry x="5990" y="120" width="40" height="40" as="geometry" />
        </mxCell>
        <mxCell id="t5OwSdyjSk-G459lIH6P-12" value="" style="edgeStyle=orthogonalEdgeStyle;rounded=0;orthogonalLoop=1;jettySize=auto;html=1;" edge="1" parent="1" source="t5OwSdyjSk-G459lIH6P-8" target="h29dOdCf91kiFEEPr48u-317">
          <mxGeometry relative="1" as="geometry" />
        </mxCell>
        <mxCell id="t5OwSdyjSk-G459lIH6P-8" value="" style="sketch=0;points=[[0,0,0],[0.25,0,0],[0.5,0,0],[0.75,0,0],[1,0,0],[0,1,0],[0.25,1,0],[0.5,1,0],[0.75,1,0],[1,1,0],[0,0.25,0],[0,0.5,0],[0,0.75,0],[1,0.25,0],[1,0.5,0],[1,0.75,0]];outlineConnect=0;fontColor=#232F3E;fillColor=#8C4FFF;strokeColor=#ffffff;dashed=0;verticalLabelPosition=bottom;verticalAlign=top;align=center;html=1;fontSize=12;fontStyle=0;aspect=fixed;shape=mxgraph.aws4.resourceIcon;resIcon=mxgraph.aws4.cloudfront;" vertex="1" parent="1">
          <mxGeometry x="5990" y="520" width="40" height="40" as="geometry" />
        </mxCell>
        <mxCell id="h29dOdCf91kiFEEPr48u-334" style="edgeStyle=orthogonalEdgeStyle;rounded=0;orthogonalLoop=1;jettySize=auto;html=1;exitX=0.5;exitY=1;exitDx=0;exitDy=0;exitPerimeter=0;" edge="1" parent="1" source="h29dOdCf91kiFEEPr48u-305" target="h29dOdCf91kiFEEPr48u-285">
          <mxGeometry relative="1" as="geometry">
            <mxPoint x="6140" y="260" as="sourcePoint" />
            <mxPoint x="6150.04" y="420" as="targetPoint" />
            <Array as="points">
              <mxPoint x="6010" y="420" />
            </Array>
          </mxGeometry>
        </mxCell>
        <mxCell id="h29dOdCf91kiFEEPr48u-305" value="" style="sketch=0;points=[[0,0,0],[0.25,0,0],[0.5,0,0],[0.75,0,0],[1,0,0],[0,1,0],[0.25,1,0],[0.5,1,0],[0.75,1,0],[1,1,0],[0,0.25,0],[0,0.5,0],[0,0.75,0],[1,0.25,0],[1,0.5,0],[1,0.75,0]];outlineConnect=0;fontColor=#232F3E;fillColor=#8C4FFF;strokeColor=#ffffff;dashed=0;verticalLabelPosition=bottom;verticalAlign=top;align=center;html=1;fontSize=12;fontStyle=0;aspect=fixed;shape=mxgraph.aws4.resourceIcon;resIcon=mxgraph.aws4.route_53;" vertex="1" parent="1">
          <mxGeometry x="5990" y="200" width="40" height="40" as="geometry" />
        </mxCell>
      </root>
    </mxGraphModel>
  </diagram>
  <diagram id="SXU2AZwH04axDSC8zZqo" name="Page-2">
    <mxGraphModel grid="1" page="1" gridSize="10" guides="1" tooltips="1" connect="1" arrows="1" fold="1" pageScale="1" pageWidth="850" pageHeight="1100" math="0" shadow="0">
      <root>
        <mxCell id="0" />
        <mxCell id="1" parent="0" />
      </root>
    </mxGraphModel>
  </diagram>
</mxfile>
